<?xml version="1.0" standalone="no"?>
<!DOCTYPE svg PUBLIC "-//W3C//DTD SVG 20010904//EN"
 "http://www.w3.org/TR/2001/REC-SVG-20010904/DTD/svg10.dtd">
<svg version="1.0" xmlns="http://www.w3.org/2000/svg"
 width="260.000000pt" height="260.000000pt" viewBox="0 0 260.000000 260.000000"
 preserveAspectRatio="xMidYMid meet">
<metadata>
Created by potrace 1.11, written by Peter Selinger 2001-2013
</metadata>
<g transform="translate(0.000000,260.000000) scale(0.100000,-0.100000)"
fill="#000000" stroke="none">
<path d="M0 1300 l0 -1300 1300 0 1300 0 0 1300 0 1300 -1300 0 -1300 0 0
-1300z m1510 845 c62 -15 240 -92 240 -104 0 -3 -30 -7 -68 -7 -88 -2 -170
-24 -286 -79 l-95 -44 -108 48 c-125 56 -193 74 -280 75 -35 1 -63 4 -63 7 0
3 39 24 88 47 81 38 166 64 252 76 62 8 253 -3 320 -19z m-707 -246 c23 -12
58 -33 77 -48 56 -40 180 -152 180 -161 0 -5 -30 -48 -67 -97 -237 -313 -393
-627 -380 -765 2 -27 1 -48 -3 -48 -12 0 -47 55 -89 139 -60 119 -85 228 -84
381 0 156 18 244 78 368 48 101 77 144 139 210 47 50 82 54 149 21z m1143 -21
c90 -96 163 -231 196 -366 30 -121 30 -303 0 -424 -27 -108 -125 -308 -151
-308 -3 0 -7 30 -8 68 -4 165 -161 471 -396 771 -40 50 -48 67 -40 80 19 31
176 160 232 190 81 44 117 42 167 -11z m-579 -457 c338 -288 581 -637 521
-751 -34 -64 -234 -177 -376 -212 -110 -27 -300 -29 -412 -5 -131 29 -342 145
-386 213 -59 89 83 330 351 599 103 104 219 205 235 205 5 0 35 -22 67 -49z"/>
</g>
</svg>
